ply
format ascii 1.0
comment Created by Blender 2.80 (sub 75) - www.blender.org, source file: ''
element vertex 364
property float x
property float y
property float z
property float nx
property float ny
property float nz
property uchar red
property uchar green
property uchar blue
property uchar alpha
element face 240
property list uchar uint vertex_indices
end_header
0.017500 0.000000 0.000000 0.052336 0.998630 0.000000 201 152 0 255
0.019329 -0.000096 0.007000 0.052336 0.998630 0.000000 203 154 27 255
0.019329 -0.000096 -0.000000 0.052336 0.998630 0.000000 201 152 0 255
0.019329 -0.000096 -0.000000 0.156435 0.987688 0.000000 201 152 0 255
0.019329 -0.000096 0.007000 0.156435 0.987688 0.000000 203 154 27 255
0.021138 -0.000382 0.007000 0.156435 0.987688 0.000000 202 154 24 255
0.021138 -0.000382 -0.000000 0.156435 0.987688 0.000000 201 152 0 255
0.021138 -0.000382 -0.000000 0.258819 0.965926 0.000000 201 152 0 255
0.021138 -0.000382 0.007000 0.258819 0.965926 0.000000 202 154 24 255
0.022908 -0.000857 0.007000 0.258819 0.965926 0.000000 202 154 16 255
0.022908 -0.000857 -0.000000 0.258819 0.965926 0.000000 201 152 0 255
0.022908 -0.000857 -0.000000 0.358367 0.933581 0.000000 201 152 0 255
0.022908 -0.000857 0.007000 0.358367 0.933581 0.000000 202 154 16 255
0.024618 -0.001513 0.007000 0.358367 0.933581 0.000000 202 153 7 255
0.024618 -0.001513 -0.000000 0.358367 0.933581 0.000000 201 152 0 255
0.024618 -0.001513 -0.000000 0.453990 0.891007 0.000000 201 152 0 255
0.024618 -0.001513 0.007000 0.453990 0.891007 0.000000 202 153 7 255
0.026250 -0.002345 0.007000 0.453990 0.891007 0.000000 201 152 1 255
0.024618 -0.001513 -0.000000 0.453991 0.891007 0.000000 201 152 0 255
0.026250 -0.002345 0.007000 0.453991 0.891007 0.000000 201 152 1 255
0.026250 -0.002345 -0.000000 0.453991 0.891007 0.000000 201 152 0 255
0.026250 -0.002345 -0.000000 0.544639 0.838670 0.000000 201 152 0 255
0.026250 -0.002345 0.007000 0.544639 0.838670 0.000000 201 152 1 255
0.027786 -0.003342 0.007000 0.544639 0.838670 0.000000 201 152 0 255
0.027786 -0.003342 -0.000000 0.544639 0.838670 0.000000 201 152 0 255
0.027786 -0.003342 -0.000000 0.629321 0.777146 0.000000 201 152 0 255
0.027786 -0.003342 0.007000 0.629321 0.777146 0.000000 201 152 0 255
0.029210 -0.004495 0.007000 0.629321 0.777146 0.000000 201 152 0 255
0.029210 -0.004495 -0.000000 0.629321 0.777146 0.000000 201 152 0 255
0.029210 -0.004495 -0.000000 0.707106 0.707107 0.000000 201 152 0 255
0.029210 -0.004495 0.007000 0.707106 0.707107 0.000000 201 152 0 255
0.030505 -0.005790 0.007000 0.707106 0.707107 0.000000 201 152 0 255
0.030505 -0.005790 -0.000000 0.707106 0.707107 0.000000 201 152 0 255
0.030505 -0.005790 -0.000000 0.777147 0.629320 0.000000 201 152 0 255
0.030505 -0.005790 0.007000 0.777147 0.629320 0.000000 201 152 0 255
0.031658 -0.007214 0.007000 0.777147 0.629320 0.000000 201 152 0 255
0.031658 -0.007214 -0.000000 0.777147 0.629320 0.000000 201 152 0 255
0.031658 -0.007214 -0.000000 0.838670 0.544639 0.000000 201 152 0 255
0.031658 -0.007214 0.007000 0.838670 0.544639 0.000000 201 152 0 255
0.032655 -0.008750 0.007000 0.838670 0.544639 0.000000 201 152 0 255
0.032655 -0.008750 -0.000000 0.838670 0.544639 -0.000000 201 152 0 255
0.032655 -0.008750 -0.000000 0.891007 0.453990 0.000000 201 152 0 255
0.032655 -0.008750 0.007000 0.891007 0.453990 0.000000 201 152 0 255
0.033487 -0.010382 0.007000 0.891007 0.453990 0.000000 201 152 0 255
0.033487 -0.010382 -0.000000 0.891007 0.453990 -0.000000 201 152 0 255
0.033487 -0.010382 -0.000000 0.933580 0.358368 0.000000 201 152 0 255
0.033487 -0.010382 0.007000 0.933580 0.358368 0.000000 201 152 0 255
0.034143 -0.012092 0.007000 0.933580 0.358368 0.000000 201 152 0 255
0.034143 -0.012092 -0.000000 0.933580 0.358368 -0.000000 201 152 0 255
0.034143 -0.012092 -0.000000 0.965926 0.258818 0.000000 201 152 0 255
0.034143 -0.012092 0.007000 0.965926 0.258818 0.000000 201 152 0 255
0.034618 -0.013862 0.007000 0.965926 0.258818 0.000000 201 152 0 255
0.034618 -0.013862 -0.000000 0.965926 0.258818 -0.000000 201 152 0 255
0.034618 -0.013862 -0.000000 0.987688 0.156436 0.000000 201 152 0 255
0.034618 -0.013862 0.007000 0.987688 0.156436 0.000000 201 152 0 255
0.034904 -0.015671 0.007000 0.987688 0.156436 0.000000 201 152 0 255
0.034904 -0.015671 -0.000000 0.987688 0.156436 -0.000000 201 152 0 255
0.034904 -0.015671 -0.000000 0.998630 0.052336 0.000000 201 152 0 255
0.034904 -0.015671 0.007000 0.998630 0.052336 0.000000 201 152 0 255
0.035000 -0.017500 0.007000 0.998630 0.052336 0.000000 201 152 0 255
0.035000 -0.017500 -0.000000 0.998630 0.052336 -0.000000 201 152 0 255
0.035000 -0.017500 -0.000000 0.998630 -0.052336 0.000000 201 152 0 255
0.035000 -0.017500 0.007000 0.998630 -0.052336 0.000000 201 152 0 255
0.034904 -0.019329 0.007000 0.998630 -0.052336 0.000000 201 152 0 255
0.034904 -0.019329 -0.000000 0.998630 -0.052336 0.000000 201 152 0 255
0.034904 -0.019329 -0.000000 0.987688 -0.156436 0.000000 201 152 0 255
0.034904 -0.019329 0.007000 0.987688 -0.156436 0.000000 201 152 0 255
0.034618 -0.021138 0.007000 0.987688 -0.156436 0.000000 201 152 0 255
0.034618 -0.021138 -0.000000 0.987688 -0.156436 0.000000 201 152 0 255
0.034618 -0.021138 -0.000000 0.965926 -0.258818 0.000000 201 152 0 255
0.034618 -0.021138 0.007000 0.965926 -0.258818 0.000000 201 152 0 255
0.034143 -0.022908 0.007000 0.965926 -0.258818 0.000000 201 152 0 255
0.034143 -0.022908 -0.000000 0.965926 -0.258818 0.000000 201 152 0 255
0.034143 -0.022908 -0.000000 0.933580 -0.358368 0.000000 201 152 0 255
0.034143 -0.022908 0.007000 0.933580 -0.358368 0.000000 201 152 0 255
0.033487 -0.024618 0.007000 0.933580 -0.358368 0.000000 201 152 1 255
0.033487 -0.024618 -0.000000 0.933580 -0.358368 0.000000 201 152 0 255
0.033487 -0.024618 -0.000000 0.891007 -0.453990 0.000000 201 152 0 255
0.033487 -0.024618 0.007000 0.891007 -0.453990 0.000000 201 152 1 255
0.032655 -0.026250 0.007000 0.891007 -0.453990 0.000000 202 153 20 255
0.032655 -0.026250 -0.000000 0.891007 -0.453990 0.000000 201 152 0 255
0.032655 -0.026250 -0.000000 0.838670 -0.544639 0.000000 201 152 0 255
0.032655 -0.026250 0.007000 0.838670 -0.544639 0.000000 202 153 20 255
0.031658 -0.027786 0.007000 0.838670 -0.544639 0.000000 202 155 29 255
0.031658 -0.027786 -0.000000 0.838670 -0.544639 0.000000 201 152 0 255
0.031658 -0.027786 -0.000000 0.777146 -0.629320 0.000000 201 152 0 255
0.031658 -0.027786 0.007000 0.777146 -0.629320 0.000000 202 155 29 255
0.030505 -0.029210 0.007000 0.777146 -0.629320 0.000000 201 152 3 255
0.030505 -0.029210 -0.000000 0.777146 -0.629320 0.000000 201 152 0 255
0.030505 -0.029210 -0.000000 0.707107 -0.707107 0.000000 201 152 0 255
0.030505 -0.029210 0.007000 0.707107 -0.707107 0.000000 201 152 3 255
0.029210 -0.030505 0.007000 0.707107 -0.707107 0.000000 201 152 0 255
0.029210 -0.030505 -0.000000 0.707107 -0.707107 0.000000 201 152 0 255
0.029210 -0.030505 -0.000000 0.629320 -0.777146 0.000000 201 152 0 255
0.029210 -0.030505 0.007000 0.629320 -0.777146 0.000000 201 152 0 255
0.027786 -0.031658 0.007000 0.629320 -0.777146 0.000000 201 152 0 255
0.027786 -0.031658 -0.000000 0.629320 -0.777146 0.000000 201 152 0 255
0.027786 -0.031658 -0.000000 0.544639 -0.838670 0.000000 201 152 0 255
0.027786 -0.031658 0.007000 0.544639 -0.838670 0.000000 201 152 0 255
0.026250 -0.032655 0.007000 0.544639 -0.838670 0.000000 201 152 0 255
0.026250 -0.032655 -0.000000 0.544639 -0.838670 0.000000 201 152 1 255
0.026250 -0.032655 -0.000000 0.453990 -0.891007 0.000000 201 152 1 255
0.026250 -0.032655 0.007000 0.453990 -0.891007 0.000000 201 152 0 255
0.024618 -0.033487 0.007000 0.453990 -0.891007 0.000000 201 152 0 255
0.024618 -0.033487 -0.000000 0.453990 -0.891007 0.000000 201 152 0 255
0.024618 -0.033487 -0.000000 0.358368 -0.933580 0.000000 201 152 0 255
0.024618 -0.033487 0.007000 0.358368 -0.933580 0.000000 201 152 0 255
0.022908 -0.034143 0.007000 0.358368 -0.933580 0.000000 201 152 0 255
0.022908 -0.034143 -0.000000 0.358368 -0.933580 0.000000 201 152 0 255
0.022908 -0.034143 -0.000000 0.258818 -0.965926 0.000000 201 152 0 255
0.022908 -0.034143 0.007000 0.258818 -0.965926 0.000000 201 152 0 255
0.021138 -0.034618 0.007000 0.258818 -0.965926 0.000000 201 152 0 255
0.021138 -0.034618 -0.000000 0.258818 -0.965926 0.000000 201 152 2 255
0.021138 -0.034618 -0.000000 0.156436 -0.987688 0.000000 201 152 2 255
0.021138 -0.034618 0.007000 0.156436 -0.987688 0.000000 201 152 0 255
0.019329 -0.034904 0.007000 0.156436 -0.987688 0.000000 201 152 0 255
0.019329 -0.034904 -0.000000 0.156436 -0.987688 0.000000 201 153 5 255
0.019329 -0.034904 -0.000000 0.052336 -0.998630 0.000000 201 153 5 255
0.019329 -0.034904 0.007000 0.052336 -0.998630 0.000000 201 152 0 255
0.017500 -0.035000 0.007000 0.052336 -0.998630 0.000000 201 152 0 255
0.017500 -0.035000 -0.000000 0.052336 -0.998630 0.000000 201 153 8 255
0.017500 -0.035000 -0.000000 -0.052336 -0.998630 -0.000000 201 153 8 255
0.017500 -0.035000 0.007000 -0.052336 -0.998630 -0.000000 201 152 0 255
0.015671 -0.034904 0.007000 -0.052336 -0.998630 -0.000000 201 152 0 255
0.015671 -0.034904 -0.000000 -0.052336 -0.998630 0.000000 201 153 9 255
0.015671 -0.034904 -0.000000 -0.156436 -0.987688 -0.000000 201 153 9 255
0.015671 -0.034904 0.007000 -0.156436 -0.987688 -0.000000 201 152 0 255
0.013862 -0.034618 0.007000 -0.156436 -0.987688 -0.000000 201 152 2 255
0.013862 -0.034618 -0.000000 -0.156436 -0.987688 0.000000 201 153 8 255
0.013862 -0.034618 -0.000000 -0.258818 -0.965926 -0.000000 201 153 8 255
0.013862 -0.034618 0.007000 -0.258818 -0.965926 -0.000000 201 152 2 255
0.012092 -0.034143 0.007000 -0.258818 -0.965926 -0.000000 201 152 12 255
0.012092 -0.034143 -0.000000 -0.258818 -0.965926 0.000000 201 153 6 255
0.012092 -0.034143 -0.000000 -0.358368 -0.933580 -0.000000 201 153 6 255
0.012092 -0.034143 0.007000 -0.358368 -0.933580 -0.000000 201 152 12 255
0.010382 -0.033487 0.007000 -0.358368 -0.933580 -0.000000 202 154 29 255
0.010382 -0.033487 -0.000000 -0.358368 -0.933580 0.000000 201 152 3 255
0.010382 -0.033487 -0.000000 -0.453990 -0.891007 -0.000000 201 152 3 255
0.010382 -0.033487 0.007000 -0.453990 -0.891007 -0.000000 202 154 29 255
0.008750 -0.032655 0.007000 -0.453990 -0.891007 -0.000000 203 155 39 255
0.008750 -0.032655 -0.000000 -0.453990 -0.891007 0.000000 201 152 0 255
0.008750 -0.032655 -0.000000 -0.544639 -0.838670 -0.000000 201 152 0 255
0.008750 -0.032655 0.007000 -0.544639 -0.838670 -0.000000 203 155 39 255
0.007214 -0.031658 0.007000 -0.544639 -0.838670 -0.000000 203 155 36 255
0.007214 -0.031658 -0.000000 -0.544639 -0.838670 0.000000 201 152 0 255
0.007214 -0.031658 -0.000000 -0.629320 -0.777147 -0.000000 201 152 0 255
0.007214 -0.031658 0.007000 -0.629320 -0.777147 -0.000000 203 155 36 255
0.005790 -0.030505 0.007000 -0.629320 -0.777147 -0.000000 201 153 21 255
0.005790 -0.030505 -0.000000 -0.629320 -0.777147 0.000000 201 152 0 255
0.005790 -0.030505 -0.000000 -0.707107 -0.707106 -0.000000 201 152 0 255
0.005790 -0.030505 0.007000 -0.707107 -0.707106 -0.000000 201 153 21 255
0.004495 -0.029210 0.007000 -0.707107 -0.707106 -0.000000 201 153 12 255
0.004495 -0.029210 -0.000000 -0.707107 -0.707106 0.000000 201 152 0 255
0.004495 -0.029210 -0.000000 -0.777146 -0.629321 -0.000000 201 152 0 255
0.004495 -0.029210 0.007000 -0.777146 -0.629321 -0.000000 201 153 12 255
0.003342 -0.027786 0.007000 -0.777146 -0.629321 -0.000000 201 152 11 255
0.003342 -0.027786 -0.000000 -0.777146 -0.629321 0.000000 201 152 0 255
0.003342 -0.027786 -0.000000 -0.838670 -0.544639 -0.000000 201 152 0 255
0.003342 -0.027786 0.007000 -0.838670 -0.544639 -0.000000 201 152 11 255
0.002345 -0.026250 0.007000 -0.838670 -0.544639 -0.000000 201 153 7 255
0.002345 -0.026250 -0.000000 -0.838670 -0.544639 0.000000 201 152 0 255
0.002345 -0.026250 -0.000000 -0.891007 -0.453991 -0.000000 201 152 0 255
0.002345 -0.026250 0.007000 -0.891007 -0.453991 -0.000000 201 153 7 255
0.001513 -0.024618 0.007000 -0.891007 -0.453991 -0.000000 201 152 2 255
0.001513 -0.024618 -0.000000 -0.891007 -0.453991 0.000000 201 152 1 255
0.001513 -0.024618 -0.000000 -0.933581 -0.358367 -0.000000 201 152 1 255
0.001513 -0.024618 0.007000 -0.933581 -0.358367 -0.000000 201 152 2 255
0.000857 -0.022908 0.007000 -0.933581 -0.358367 -0.000000 201 152 0 255
0.000857 -0.022908 -0.000000 -0.933581 -0.358367 0.000000 201 153 9 255
0.000857 -0.022908 -0.000000 -0.965926 -0.258819 -0.000000 201 153 9 255
0.000857 -0.022908 0.007000 -0.965926 -0.258819 -0.000000 201 152 0 255
0.000382 -0.021138 0.007000 -0.965926 -0.258819 -0.000000 201 152 0 255
0.000382 -0.021138 -0.000000 -0.965926 -0.258819 0.000000 201 155 33 255
0.000382 -0.021138 -0.000000 -0.987688 -0.156435 -0.000000 201 155 33 255
0.000382 -0.021138 0.007000 -0.987688 -0.156435 -0.000000 201 152 0 255
0.000096 -0.019329 0.007000 -0.987688 -0.156435 -0.000000 201 152 0 255
0.000096 -0.019329 -0.000000 -0.987688 -0.156435 0.000000 201 156 40 255
0.000096 -0.019329 -0.000000 -0.998630 -0.052336 -0.000000 201 156 40 255
0.000096 -0.019329 0.007000 -0.998630 -0.052336 -0.000000 201 152 0 255
0.000000 -0.017500 0.007000 -0.998630 -0.052336 -0.000000 201 152 0 255
0.000000 -0.017500 -0.000000 -0.998630 -0.052336 0.000000 202 154 25 255
0.000000 -0.017500 -0.000000 -0.998630 0.052336 0.000000 202 154 25 255
0.000000 -0.017500 0.007000 -0.998630 0.052336 0.000000 201 152 0 255
0.000096 -0.015671 0.007000 -0.998630 0.052336 0.000000 201 152 0 255
0.000096 -0.015671 -0.000000 -0.998630 0.052336 0.000000 201 152 3 255
0.000096 -0.015671 -0.000000 -0.987688 0.156435 0.000000 201 152 3 255
0.000096 -0.015671 0.007000 -0.987688 0.156435 0.000000 201 152 0 255
0.000382 -0.013862 0.007000 -0.987688 0.156435 0.000000 201 152 0 255
0.000382 -0.013862 -0.000000 -0.987688 0.156435 0.000000 201 152 0 255
0.000382 -0.013862 -0.000000 -0.965926 0.258819 0.000000 201 152 0 255
0.000382 -0.013862 0.007000 -0.965926 0.258819 0.000000 201 152 0 255
0.000857 -0.012092 0.007000 -0.965926 0.258819 0.000000 201 152 0 255
0.000857 -0.012092 -0.000000 -0.965926 0.258819 0.000000 201 152 1 255
0.000857 -0.012092 -0.000000 -0.933581 0.358367 0.000000 201 152 1 255
0.000857 -0.012092 0.007000 -0.933581 0.358367 0.000000 201 152 0 255
0.001513 -0.010382 0.007000 -0.933581 0.358367 0.000000 201 152 0 255
0.001513 -0.010382 -0.000000 -0.933581 0.358367 0.000000 201 152 0 255
0.001513 -0.010382 -0.000000 -0.891006 0.453991 0.000000 201 152 0 255
0.001513 -0.010382 0.007000 -0.891006 0.453991 0.000000 201 152 0 255
0.002345 -0.008750 0.007000 -0.891006 0.453991 0.000000 201 152 0 255
0.002345 -0.008750 -0.000000 -0.891006 0.453991 0.000000 201 152 0 255
0.002345 -0.008750 -0.000000 -0.838670 0.544639 0.000000 201 152 0 255
0.002345 -0.008750 0.007000 -0.838670 0.544639 0.000000 201 152 0 255
0.003342 -0.007214 0.007000 -0.838670 0.544639 0.000000 201 152 0 255
0.003342 -0.007214 -0.000000 -0.838670 0.544639 0.000000 201 152 0 255
0.003342 -0.007214 -0.000000 -0.777146 0.629320 0.000000 201 152 0 255
0.003342 -0.007214 0.007000 -0.777146 0.629320 0.000000 201 152 0 255
0.004495 -0.005790 0.007000 -0.777146 0.629320 0.000000 201 152 0 255
0.004495 -0.005790 -0.000000 -0.777146 0.629320 0.000000 201 152 0 255
0.004495 -0.005790 -0.000000 -0.707107 0.707107 0.000000 201 152 0 255
0.004495 -0.005790 0.007000 -0.707107 0.707107 0.000000 201 152 0 255
0.005790 -0.004495 0.007000 -0.707107 0.707107 0.000000 201 152 0 255
0.005790 -0.004495 -0.000000 -0.707107 0.707107 0.000000 201 152 0 255
0.005790 -0.004495 -0.000000 -0.629320 0.777146 0.000000 201 152 0 255
0.005790 -0.004495 0.007000 -0.629320 0.777146 0.000000 201 152 0 255
0.007214 -0.003342 0.007000 -0.629320 0.777146 0.000000 201 152 0 255
0.007214 -0.003342 -0.000000 -0.629320 0.777146 0.000000 201 152 0 255
0.007214 -0.003342 -0.000000 -0.544639 0.838670 0.000000 201 152 0 255
0.007214 -0.003342 0.007000 -0.544639 0.838670 0.000000 201 152 0 255
0.008750 -0.002345 0.007000 -0.544639 0.838670 0.000000 201 152 2 255
0.008750 -0.002345 -0.000000 -0.544639 0.838670 0.000000 201 152 0 255
0.008750 -0.002345 -0.000000 -0.453991 0.891006 0.000000 201 152 0 255
0.008750 -0.002345 0.007000 -0.453991 0.891006 0.000000 201 152 2 255
0.010382 -0.001513 0.007000 -0.453991 0.891006 0.000000 201 152 5 255
0.010382 -0.001513 -0.000000 -0.453991 0.891006 0.000000 201 152 0 255
0.010382 -0.001513 -0.000000 -0.358367 0.933581 0.000000 201 152 0 255
0.010382 -0.001513 0.007000 -0.358367 0.933581 0.000000 201 152 5 255
0.012092 -0.000857 0.007000 -0.358367 0.933581 0.000000 202 153 14 255
0.012092 -0.000857 -0.000000 -0.358367 0.933581 0.000000 201 152 0 255
0.012092 -0.000857 -0.000000 -0.258819 0.965926 0.000000 201 152 0 255
0.012092 -0.000857 0.007000 -0.258819 0.965926 0.000000 202 153 14 255
0.013862 -0.000382 0.007000 -0.258819 0.965926 0.000000 202 153 25 255
0.013862 -0.000382 -0.000000 -0.258819 0.965926 0.000000 201 152 0 255
0.013862 -0.000382 -0.000000 -0.156435 0.987688 0.000000 201 152 0 255
0.013862 -0.000382 0.007000 -0.156435 0.987688 0.000000 202 153 25 255
0.015671 -0.000096 0.007000 -0.156435 0.987688 0.000000 203 154 34 255
0.015671 -0.000096 -0.000000 -0.156435 0.987688 0.000000 201 152 0 255
0.015671 -0.000096 -0.000000 -0.052336 0.998630 0.000000 201 152 0 255
0.015671 -0.000096 0.007000 -0.052336 0.998630 0.000000 203 154 34 255
0.017500 -0.000000 0.007000 -0.052336 0.998630 0.000000 203 155 33 255
0.017500 0.000000 0.000000 -0.052336 0.998630 0.000000 201 152 0 255
0.017500 -0.000000 0.007000 0.052336 0.998630 0.000000 203 155 33 255
0.013862 -0.034618 0.007000 -0.000000 -0.000000 1.000000 201 152 2 255
0.015671 -0.034904 0.007000 -0.000000 -0.000000 1.000000 201 152 0 255
0.017500 -0.017500 0.007000 -0.000000 -0.000000 1.000000 201 152 0 255
0.017500 -0.035000 0.007000 -0.000000 -0.000000 1.000000 201 152 0 255
0.019329 -0.034904 0.007000 0.000000 -0.000000 1.000000 201 152 0 255
0.008750 -0.032655 0.007000 -0.000000 -0.000000 1.000000 203 155 39 255
0.010382 -0.033487 0.007000 -0.000000 -0.000000 1.000000 202 154 29 255
0.012092 -0.034143 0.007000 -0.000000 -0.000000 1.000000 201 152 12 255
0.004495 -0.029210 0.007000 -0.000000 -0.000000 1.000000 201 153 12 255
0.005790 -0.030505 0.007000 -0.000000 -0.000000 1.000000 201 153 21 255
0.007214 -0.031658 0.007000 -0.000000 -0.000000 1.000000 203 155 36 255
0.001513 -0.024618 0.007000 0.000000 0.000000 1.000000 201 152 2 255
0.002345 -0.026250 0.007000 0.000000 0.000000 1.000000 201 153 7 255
0.003342 -0.027786 0.007000 0.000000 -0.000000 1.000000 201 152 11 255
0.000096 -0.019329 0.007000 0.000000 0.000000 1.000000 201 152 0 255
0.000382 -0.021138 0.007000 0.000000 0.000000 1.000000 201 152 0 255
0.000857 -0.022908 0.007000 0.000000 -0.000000 1.000000 201 152 0 255
0.000382 -0.013862 0.007000 0.000000 -0.000000 1.000000 201 152 0 255
0.000096 -0.015671 0.007000 0.000000 -0.000000 1.000000 201 152 0 255
0.000000 -0.017500 0.007000 0.000000 -0.000000 1.000000 201 152 0 255
0.002345 -0.008750 0.007000 0.000000 -0.000000 1.000000 201 152 0 255
0.001513 -0.010382 0.007000 0.000000 -0.000000 1.000000 201 152 0 255
0.000857 -0.012092 0.007000 0.000000 -0.000000 1.000000 201 152 0 255
0.005790 -0.004495 0.007000 -0.000000 -0.000000 1.000000 201 152 0 255
0.004495 -0.005790 0.007000 -0.000000 -0.000000 1.000000 201 152 0 255
0.003342 -0.007214 0.007000 0.000000 -0.000000 1.000000 201 152 0 255
0.010382 -0.001513 0.007000 0.000000 -0.000000 1.000000 201 152 5 255
0.008750 -0.002345 0.007000 0.000000 -0.000000 1.000000 201 152 2 255
0.007214 -0.003342 0.007000 0.000000 -0.000000 1.000000 201 152 0 255
0.015671 -0.000096 0.007000 0.000000 -0.000000 1.000000 203 154 34 255
0.013862 -0.000382 0.007000 0.000000 -0.000000 1.000000 202 153 25 255
0.012092 -0.000857 0.007000 0.000000 -0.000000 1.000000 202 153 14 255
0.021138 -0.000382 0.007000 -0.000000 -0.000000 1.000000 202 154 24 255
0.019329 -0.000096 0.007000 -0.000000 -0.000000 1.000000 203 154 27 255
0.017500 -0.000000 0.007000 -0.000000 -0.000000 1.000000 203 155 33 255
0.026250 -0.002345 0.007000 -0.000000 -0.000000 1.000000 201 152 1 255
0.024618 -0.001513 0.007000 -0.000000 -0.000000 1.000000 202 153 7 255
0.022908 -0.000857 0.007000 -0.000000 -0.000000 1.000000 202 154 16 255
0.030505 -0.005790 0.007000 0.000000 -0.000000 1.000000 201 152 0 255
0.029210 -0.004495 0.007000 0.000000 -0.000000 1.000000 201 152 0 255
0.027786 -0.003342 0.007000 -0.000000 -0.000000 1.000000 201 152 0 255
0.033487 -0.010382 0.007000 -0.000000 -0.000000 1.000000 201 152 0 255
0.032655 -0.008750 0.007000 -0.000000 -0.000000 1.000000 201 152 0 255
0.031658 -0.007214 0.007000 -0.000000 -0.000000 1.000000 201 152 0 255
0.034904 -0.015671 0.007000 -0.000000 -0.000000 1.000000 201 152 0 255
0.034618 -0.013862 0.007000 -0.000000 -0.000000 1.000000 201 152 0 255
0.034143 -0.012092 0.007000 -0.000000 -0.000000 1.000000 201 152 0 255
0.034618 -0.021138 0.007000 0.000000 0.000000 1.000000 201 152 0 255
0.034904 -0.019329 0.007000 0.000000 0.000000 1.000000 201 152 0 255
0.035000 -0.017500 0.007000 0.000000 0.000000 1.000000 201 152 0 255
0.032655 -0.026250 0.007000 0.000000 0.000000 1.000000 202 153 20 255
0.033487 -0.024618 0.007000 0.000000 0.000000 1.000000 201 152 1 255
0.034143 -0.022908 0.007000 0.000000 0.000000 1.000000 201 152 0 255
0.029210 -0.030505 0.007000 0.000000 -0.000000 1.000000 201 152 0 255
0.030505 -0.029210 0.007000 0.000000 -0.000000 1.000000 201 152 3 255
0.031658 -0.027786 0.007000 0.000000 -0.000000 1.000000 202 155 29 255
0.024618 -0.033487 0.007000 0.000000 -0.000000 1.000000 201 152 0 255
0.026250 -0.032655 0.007000 0.000000 -0.000000 1.000000 201 152 0 255
0.027786 -0.031658 0.007000 0.000000 -0.000000 1.000000 201 152 0 255
0.021138 -0.034618 0.007000 0.000000 -0.000000 1.000000 201 152 0 255
0.022908 -0.034143 0.007000 0.000000 -0.000000 1.000000 201 152 0 255
0.021138 -0.034618 -0.000000 0.000000 0.000000 -1.000000 201 152 2 255
0.019329 -0.034904 -0.000000 0.000000 0.000000 -1.000000 201 153 5 255
0.017500 -0.017500 -0.000000 0.000000 0.000000 -1.000000 201 152 0 255
0.017500 -0.035000 -0.000000 -0.000000 0.000000 -1.000000 201 153 8 255
0.015671 -0.034904 -0.000000 0.000000 0.000000 -1.000000 201 153 9 255
0.026250 -0.032655 -0.000000 0.000000 0.000000 -1.000000 201 152 1 255
0.024618 -0.033487 -0.000000 0.000000 0.000000 -1.000000 201 152 0 255
0.022908 -0.034143 -0.000000 -0.000000 0.000000 -1.000000 201 152 0 255
0.030505 -0.029210 -0.000000 0.000000 0.000000 -1.000000 201 152 0 255
0.029210 -0.030505 -0.000000 0.000000 0.000000 -1.000000 201 152 0 255
0.027786 -0.031658 -0.000000 -0.000000 0.000000 -1.000000 201 152 0 255
0.033487 -0.024618 -0.000000 -0.000000 0.000000 -1.000000 201 152 0 255
0.032655 -0.026250 -0.000000 -0.000000 0.000000 -1.000000 201 152 0 255
0.031658 -0.027786 -0.000000 0.000000 0.000000 -1.000000 201 152 0 255
0.034904 -0.019329 -0.000000 -0.000000 0.000000 -1.000000 201 152 0 255
0.034618 -0.021138 -0.000000 -0.000000 0.000000 -1.000000 201 152 0 255
0.034143 -0.022908 -0.000000 -0.000000 0.000000 -1.000000 201 152 0 255
0.034618 -0.013862 -0.000000 -0.000000 0.000000 -1.000000 201 152 0 255
0.034904 -0.015671 -0.000000 -0.000000 0.000000 -1.000000 201 152 0 255
0.035000 -0.017500 -0.000000 0.000000 0.000000 -1.000000 201 152 0 255
0.032655 -0.008750 -0.000000 -0.000000 0.000000 -1.000000 201 152 0 255
0.033487 -0.010382 -0.000000 -0.000000 0.000000 -1.000000 201 152 0 255
0.034143 -0.012092 -0.000000 0.000000 0.000000 -1.000000 201 152 0 255
0.029210 -0.004495 -0.000000 0.000000 0.000000 -1.000000 201 152 0 255
0.030505 -0.005790 -0.000000 0.000000 0.000000 -1.000000 201 152 0 255
0.031658 -0.007214 -0.000000 0.000000 0.000000 -1.000000 201 152 0 255
0.024618 -0.001513 -0.000000 0.000000 0.000000 -1.000000 201 152 0 255
0.026250 -0.002345 -0.000000 0.000000 0.000000 -1.000000 201 152 0 255
0.027786 -0.003342 -0.000000 -0.000000 0.000000 -1.000000 201 152 0 255
0.019329 -0.000096 -0.000000 -0.000000 0.000000 -1.000000 201 152 0 255
0.021138 -0.000382 -0.000000 -0.000000 0.000000 -1.000000 201 152 0 255
0.022908 -0.000857 -0.000000 0.000000 0.000000 -1.000000 201 152 0 255
0.013862 -0.000382 -0.000000 0.000000 0.000000 -1.000000 201 152 0 255
0.015671 -0.000096 -0.000000 0.000000 0.000000 -1.000000 201 152 0 255
0.017500 0.000000 0.000000 0.000000 0.000000 -1.000000 201 152 0 255
0.008750 -0.002345 -0.000000 0.000000 0.000000 -1.000000 201 152 0 255
0.010382 -0.001513 -0.000000 0.000000 0.000000 -1.000000 201 152 0 255
0.012092 -0.000857 -0.000000 0.000000 0.000000 -1.000000 201 152 0 255
0.004495 -0.005790 -0.000000 0.000000 0.000000 -1.000000 201 152 0 255
0.005790 -0.004495 -0.000000 0.000000 0.000000 -1.000000 201 152 0 255
0.007214 -0.003342 -0.000000 0.000000 0.000000 -1.000000 201 152 0 255
0.001513 -0.010382 -0.000000 0.000000 0.000000 -1.000000 201 152 0 255
0.002345 -0.008750 -0.000000 0.000000 0.000000 -1.000000 201 152 0 255
0.003342 -0.007214 -0.000000 0.000000 0.000000 -1.000000 201 152 0 255
0.000096 -0.015671 -0.000000 0.000000 0.000000 -1.000000 201 152 3 255
0.000382 -0.013862 -0.000000 0.000000 0.000000 -1.000000 201 152 0 255
0.000857 -0.012092 -0.000000 0.000000 0.000000 -1.000000 201 152 1 255
0.000382 -0.021138 -0.000000 0.000000 0.000000 -1.000000 201 155 33 255
0.000096 -0.019329 -0.000000 0.000000 0.000000 -1.000000 201 156 40 255
0.000000 -0.017500 -0.000000 0.000000 0.000000 -1.000000 202 154 25 255
0.002345 -0.026250 -0.000000 0.000000 0.000000 -1.000000 201 152 0 255
0.001513 -0.024618 -0.000000 0.000000 0.000000 -1.000000 201 152 1 255
0.000857 -0.022908 -0.000000 -0.000000 0.000000 -1.000000 201 153 9 255
0.005790 -0.030505 -0.000000 -0.000000 0.000000 -1.000000 201 152 0 255
0.004495 -0.029210 -0.000000 -0.000000 0.000000 -1.000000 201 152 0 255
0.003342 -0.027786 -0.000000 0.000000 0.000000 -1.000000 201 152 0 255
0.010382 -0.033487 -0.000000 -0.000000 0.000000 -1.000000 201 152 3 255
0.008750 -0.032655 -0.000000 -0.000000 0.000000 -1.000000 201 152 0 255
0.007214 -0.031658 -0.000000 0.000000 0.000000 -1.000000 201 152 0 255
0.013862 -0.034618 -0.000000 -0.000000 0.000000 -1.000000 201 153 8 255
0.012092 -0.034143 -0.000000 0.000000 0.000000 -1.000000 201 153 6 255
3 0 1 2
3 3 4 5
3 3 5 6
3 7 8 9
3 7 9 10
3 11 12 13
3 11 13 14
3 15 16 17
3 18 19 20
3 21 22 23
3 21 23 24
3 25 26 27
3 25 27 28
3 29 30 31
3 29 31 32
3 33 34 35
3 33 35 36
3 37 38 39
3 37 39 40
3 41 42 43
3 41 43 44
3 45 46 47
3 45 47 48
3 49 50 51
3 49 51 52
3 53 54 55
3 53 55 56
3 57 58 59
3 57 59 60
3 61 62 63
3 61 63 64
3 65 66 67
3 65 67 68
3 69 70 71
3 69 71 72
3 73 74 75
3 73 75 76
3 77 78 79
3 77 79 80
3 81 82 83
3 81 83 84
3 85 86 87
3 85 87 88
3 89 90 91
3 89 91 92
3 93 94 95
3 93 95 96
3 97 98 99
3 97 99 100
3 101 102 103
3 101 103 104
3 105 106 107
3 105 107 108
3 109 110 111
3 109 111 112
3 113 114 115
3 113 115 116
3 117 118 119
3 117 119 120
3 121 122 123
3 121 123 124
3 125 126 127
3 125 127 128
3 129 130 131
3 129 131 132
3 133 134 135
3 133 135 136
3 137 138 139
3 137 139 140
3 141 142 143
3 141 143 144
3 145 146 147
3 145 147 148
3 149 150 151
3 149 151 152
3 153 154 155
3 153 155 156
3 157 158 159
3 157 159 160
3 161 162 163
3 161 163 164
3 165 166 167
3 165 167 168
3 169 170 171
3 169 171 172
3 173 174 175
3 173 175 176
3 177 178 179
3 177 179 180
3 181 182 183
3 181 183 184
3 185 186 187
3 185 187 188
3 189 190 191
3 189 191 192
3 193 194 195
3 193 195 196
3 197 198 199
3 197 199 200
3 201 202 203
3 201 203 204
3 205 206 207
3 205 207 208
3 209 210 211
3 209 211 212
3 213 214 215
3 213 215 216
3 217 218 219
3 217 219 220
3 221 222 223
3 221 223 224
3 225 226 227
3 225 227 228
3 229 230 231
3 229 231 232
3 233 234 235
3 233 235 236
3 237 238 239
3 237 239 240
3 0 241 1
3 242 243 244
3 244 243 245
3 244 245 246
3 247 248 244
3 244 248 249
3 244 249 242
3 250 251 244
3 244 251 252
3 244 252 247
3 253 254 244
3 244 254 255
3 244 255 250
3 256 257 244
3 244 257 258
3 244 258 253
3 259 260 244
3 244 260 261
3 244 261 256
3 262 263 244
3 244 263 264
3 244 264 259
3 265 266 244
3 244 266 267
3 244 267 262
3 268 269 244
3 244 269 270
3 244 270 265
3 271 272 244
3 244 272 273
3 244 273 268
3 274 275 244
3 244 275 276
3 244 276 271
3 277 278 244
3 244 278 279
3 244 279 274
3 280 281 244
3 244 281 282
3 244 282 277
3 283 284 244
3 244 284 285
3 244 285 280
3 286 287 244
3 244 287 288
3 244 288 283
3 289 290 244
3 244 290 291
3 244 291 286
3 292 293 244
3 244 293 294
3 244 294 289
3 295 296 244
3 244 296 297
3 244 297 292
3 298 299 244
3 244 299 300
3 244 300 295
3 246 301 244
3 244 301 302
3 244 302 298
3 303 304 305
3 305 304 306
3 305 306 307
3 308 309 305
3 305 309 310
3 305 310 303
3 311 312 305
3 305 312 313
3 305 313 308
3 314 315 305
3 305 315 316
3 305 316 311
3 317 318 305
3 305 318 319
3 305 319 314
3 320 321 305
3 305 321 322
3 305 322 317
3 323 324 305
3 305 324 325
3 305 325 320
3 326 327 305
3 305 327 328
3 305 328 323
3 329 330 305
3 305 330 331
3 305 331 326
3 332 333 305
3 305 333 334
3 305 334 329
3 335 336 305
3 305 336 337
3 305 337 332
3 338 339 305
3 305 339 340
3 305 340 335
3 341 342 305
3 305 342 343
3 305 343 338
3 344 345 305
3 305 345 346
3 305 346 341
3 347 348 305
3 305 348 349
3 305 349 344
3 350 351 305
3 305 351 352
3 305 352 347
3 353 354 305
3 305 354 355
3 305 355 350
3 356 357 305
3 305 357 358
3 305 358 353
3 359 360 305
3 305 360 361
3 305 361 356
3 307 362 305
3 305 362 363
3 305 363 359
