ply
format ascii 1.0
comment Created by Blender 2.80 (sub 75) - www.blender.org, source file: ''
element vertex 376
property float x
property float y
property float z
property float nx
property float ny
property float nz
property uchar red
property uchar green
property uchar blue
property uchar alpha
element face 248
property list uchar uint vertex_indices
end_header
0.026287 -0.049967 0.007000 0.025748 -0.999668 0.000000 201 152 14 255
0.025000 -0.050000 0.007000 0.025748 -0.999668 0.000000 201 153 18 255
0.025000 -0.050000 -0.000000 0.025748 -0.999668 0.000000 201 152 0 255
0.025000 -0.050000 -0.000000 -0.025748 -0.999668 -0.000000 201 152 0 255
0.025000 -0.050000 0.007000 -0.025748 -0.999668 -0.000000 201 153 18 255
0.023713 -0.049967 -0.000000 -0.025748 -0.999668 -0.000000 201 152 0 255
0.023713 -0.049967 0.007000 -0.025748 -0.999668 0.000000 202 153 21 255
0.023713 -0.049967 -0.000000 -0.102821 -0.994700 -0.000000 201 152 0 255
0.023713 -0.049967 0.007000 -0.102821 -0.994700 -0.000000 202 153 21 255
0.021153 -0.049702 0.007000 -0.102821 -0.994700 -0.000000 202 153 8 255
0.021153 -0.049702 -0.000000 -0.102821 -0.994700 0.000000 201 152 0 255
0.021153 -0.049702 -0.000000 -0.204551 -0.978856 -0.000000 201 152 0 255
0.021153 -0.049702 0.007000 -0.204551 -0.978856 -0.000000 202 153 8 255
0.018633 -0.049176 0.007000 -0.204551 -0.978856 -0.000000 201 152 1 255
0.018633 -0.049176 -0.000000 -0.204551 -0.978856 0.000000 201 152 0 255
0.018633 -0.049176 -0.000000 -0.304115 -0.952635 -0.000000 201 152 0 255
0.018633 -0.049176 0.007000 -0.304115 -0.952635 -0.000000 201 152 1 255
0.016181 -0.048393 0.007000 -0.304115 -0.952635 -0.000000 201 152 7 255
0.016181 -0.048393 -0.000000 -0.304115 -0.952635 0.000000 201 152 0 255
0.016181 -0.048393 -0.000000 -0.400454 -0.916317 -0.000000 201 152 0 255
0.016181 -0.048393 0.007000 -0.400454 -0.916317 -0.000000 201 152 7 255
0.013823 -0.047362 0.007000 -0.400454 -0.916317 -0.000000 201 152 2 255
0.013823 -0.047362 -0.000000 -0.400454 -0.916317 0.000000 201 152 0 255
0.013823 -0.047362 -0.000000 -0.492549 -0.870285 -0.000000 201 152 0 255
0.013823 -0.047362 0.007000 -0.492549 -0.870285 -0.000000 201 152 2 255
0.011583 -0.046094 0.007000 -0.492549 -0.870285 -0.000000 201 152 0 255
0.011583 -0.046094 -0.000000 -0.492549 -0.870285 0.000000 201 152 7 255
0.011583 -0.046094 -0.000000 -0.579420 -0.815029 -0.000000 201 152 7 255
0.011583 -0.046094 0.007000 -0.579420 -0.815029 -0.000000 201 152 0 255
0.009485 -0.044603 0.007000 -0.579420 -0.815029 -0.000000 201 152 0 255
0.009485 -0.044603 -0.000000 -0.579420 -0.815029 0.000000 203 154 31 255
0.009485 -0.044603 -0.000000 -0.660153 -0.751131 -0.000000 203 154 31 255
0.009485 -0.044603 0.007000 -0.660153 -0.751131 -0.000000 201 152 0 255
0.007551 -0.042904 0.007000 -0.660153 -0.751131 -0.000000 201 152 0 255
0.007551 -0.042904 -0.000000 -0.660153 -0.751131 0.000000 202 153 10 255
0.007551 -0.042904 -0.000000 -0.733885 -0.679273 -0.000000 202 153 10 255
0.007551 -0.042904 0.007000 -0.733885 -0.679273 -0.000000 201 152 0 255
0.005803 -0.041015 0.007000 -0.733885 -0.679273 -0.000000 201 152 0 255
0.005803 -0.041015 -0.000000 -0.733885 -0.679273 0.000000 201 152 0 255
0.005803 -0.041015 -0.000000 -0.799839 -0.600215 -0.000000 201 152 0 255
0.005803 -0.041015 0.007000 -0.799839 -0.600215 -0.000000 201 152 0 255
0.004258 -0.038956 0.007000 -0.799839 -0.600215 -0.000000 201 152 0 255
0.004258 -0.038956 -0.000000 -0.799839 -0.600215 0.000000 201 152 0 255
0.004258 -0.038956 -0.000000 -0.857315 -0.514793 -0.000000 201 152 0 255
0.004258 -0.038956 0.007000 -0.857315 -0.514793 -0.000000 201 152 0 255
0.002933 -0.036749 0.007000 -0.857315 -0.514793 -0.000000 201 152 0 255
0.002933 -0.036749 -0.000000 -0.857315 -0.514793 0.000000 201 152 0 255
0.002933 -0.036749 -0.000000 -0.905702 -0.423914 -0.000000 201 152 0 255
0.002933 -0.036749 0.007000 -0.905702 -0.423914 -0.000000 201 152 0 255
0.001842 -0.034418 0.007000 -0.905702 -0.423914 -0.000000 201 152 0 255
0.001842 -0.034418 -0.000000 -0.905702 -0.423914 0.000000 201 152 0 255
0.001842 -0.034418 -0.000000 -0.944489 -0.328542 -0.000000 201 152 0 255
0.001842 -0.034418 0.007000 -0.944489 -0.328542 -0.000000 201 152 0 255
0.000996 -0.031987 0.007000 -0.944489 -0.328542 -0.000000 201 152 0 255
0.000996 -0.031987 -0.000000 -0.944489 -0.328542 0.000000 201 152 0 255
0.000996 -0.031987 -0.000000 -0.973264 -0.229688 -0.000000 201 152 0 255
0.000996 -0.031987 0.007000 -0.973264 -0.229688 -0.000000 201 152 0 255
0.000405 -0.029482 0.007000 -0.973264 -0.229688 -0.000000 201 152 0 255
0.000405 -0.029482 -0.000000 -0.973264 -0.229688 0.000000 201 152 0 255
0.000405 -0.029482 -0.000000 -0.991723 -0.128398 -0.000000 201 152 0 255
0.000405 -0.029482 0.007000 -0.991723 -0.128398 -0.000000 201 152 0 255
0.000075 -0.026929 0.007000 -0.991723 -0.128398 -0.000000 201 152 0 255
0.000075 -0.026929 -0.000000 -0.991723 -0.128398 0.000000 201 152 0 255
0.000075 -0.026929 -0.000000 -0.999668 -0.025748 -0.000000 201 152 0 255
0.000075 -0.026929 0.007000 -0.999668 -0.025748 -0.000000 201 152 0 255
0.000008 -0.024356 0.007000 -0.999668 -0.025748 -0.000000 201 152 0 255
0.000008 -0.024356 -0.000000 -0.999668 -0.025748 0.000000 201 152 0 255
0.000008 -0.024356 -0.000000 -0.997018 0.077176 0.000000 201 152 0 255
0.000008 -0.024356 0.007000 -0.997018 0.077176 0.000000 201 152 0 255
0.000207 -0.021790 0.007000 -0.997018 0.077176 0.000000 201 152 0 255
0.000207 -0.021790 -0.000000 -0.997018 0.077176 0.000000 201 152 0 255
0.000207 -0.021790 -0.000000 -0.983798 0.179281 0.000000 201 152 0 255
0.000207 -0.021790 0.007000 -0.983798 0.179281 0.000000 201 152 0 255
0.000668 -0.019258 0.007000 -0.983798 0.179281 0.000000 201 152 0 255
0.000668 -0.019258 -0.000000 -0.983798 0.179281 0.000000 201 152 0 255
0.000668 -0.019258 -0.000000 -0.960150 0.279485 0.000000 201 152 0 255
0.000668 -0.019258 0.007000 -0.960150 0.279485 0.000000 201 152 0 255
0.001388 -0.016786 0.007000 -0.960150 0.279485 0.000000 201 152 0 255
0.001388 -0.016786 -0.000000 -0.960150 0.279485 0.000000 201 152 0 255
0.001388 -0.016786 -0.000000 -0.926324 0.376728 0.000000 201 152 0 255
0.001388 -0.016786 0.007000 -0.926324 0.376728 0.000000 201 152 0 255
0.002357 -0.014402 0.007000 -0.926324 0.376728 0.000000 201 152 0 255
0.002357 -0.014402 -0.000000 -0.926324 0.376728 0.000000 201 152 0 255
0.002357 -0.014402 -0.000000 -0.882679 0.469977 0.000000 201 152 0 255
0.002357 -0.014402 0.007000 -0.882679 0.469977 0.000000 201 152 0 255
0.003567 -0.012130 0.007000 -0.882679 0.469977 0.000000 201 152 0 255
0.003567 -0.012130 -0.000000 -0.882679 0.469977 0.000000 201 152 0 255
0.003567 -0.012130 -0.000000 -0.829677 0.558244 0.000000 201 152 0 255
0.003567 -0.012130 0.007000 -0.829677 0.558244 0.000000 201 152 0 255
0.005004 -0.009995 0.007000 -0.829677 0.558244 0.000000 201 152 0 255
0.005004 -0.009995 -0.000000 -0.829677 0.558244 0.000000 201 152 0 255
0.005004 -0.009995 -0.000000 -0.767880 0.640593 0.000000 201 152 0 255
0.005004 -0.009995 0.007000 -0.767880 0.640593 0.000000 201 152 0 255
0.006653 -0.008018 0.007000 -0.767880 0.640593 0.000000 202 153 11 255
0.006653 -0.008018 -0.000000 -0.767880 0.640593 0.000000 201 152 0 255
0.006653 -0.008018 -0.000000 -0.697944 0.716152 0.000000 201 152 0 255
0.006653 -0.008018 0.007000 -0.697944 0.716152 0.000000 202 153 11 255
0.008496 -0.006222 0.007000 -0.697944 0.716152 0.000000 201 153 4 255
0.008496 -0.006222 -0.000000 -0.697944 0.716152 0.000000 201 152 0 255
0.008496 -0.006222 -0.000000 -0.620609 0.784120 0.000000 201 152 0 255
0.008496 -0.006222 0.007000 -0.620609 0.784120 0.000000 201 153 4 255
0.010514 -0.004624 0.007000 -0.620609 0.784120 0.000000 201 152 0 255
0.010514 -0.004624 -0.000000 -0.620609 0.784120 0.000000 202 153 22 255
0.010514 -0.004624 -0.000000 -0.536696 0.843775 0.000000 202 153 22 255
0.010514 -0.004624 0.007000 -0.536696 0.843775 0.000000 201 152 0 255
0.012686 -0.003243 0.007000 -0.536696 0.843775 0.000000 201 152 0 255
0.012686 -0.003243 -0.000000 -0.536696 0.843775 0.000000 203 157 45 255
0.012686 -0.003243 -0.000000 -0.447093 0.894487 0.000000 203 157 45 255
0.012686 -0.003243 0.007000 -0.447093 0.894487 0.000000 201 152 0 255
0.014989 -0.002092 0.007000 -0.447093 0.894487 0.000000 201 152 0 255
0.014989 -0.002092 -0.000000 -0.447093 0.894487 0.000000 201 152 2 255
0.014989 -0.002092 -0.000000 -0.352752 0.935717 0.000000 201 152 2 255
0.014989 -0.002092 0.007000 -0.352752 0.935717 0.000000 201 152 0 255
0.017397 -0.001184 0.007000 -0.352752 0.935717 0.000000 201 152 0 255
0.017397 -0.001184 -0.000000 -0.352752 0.935717 0.000000 201 152 0 255
0.017397 -0.001184 -0.000000 -0.254671 0.967028 0.000000 201 152 0 255
0.017397 -0.001184 0.007000 -0.254671 0.967028 0.000000 201 152 0 255
0.019886 -0.000529 0.007000 -0.254671 0.967028 0.000000 201 152 0 255
0.019886 -0.000529 -0.000000 -0.254671 0.967028 0.000000 201 152 2 255
0.019886 -0.000529 -0.000000 -0.153891 0.988088 0.000000 201 152 2 255
0.019886 -0.000529 0.007000 -0.153891 0.988088 0.000000 201 152 0 255
0.022429 -0.000133 0.007000 -0.153891 0.988088 0.000000 201 152 0 255
0.022429 -0.000133 -0.000000 -0.153891 0.988088 0.000000 202 153 13 255
0.022429 -0.000133 -0.000000 -0.051479 0.998674 0.000000 202 153 13 255
0.022429 -0.000133 0.007000 -0.051479 0.998674 0.000000 201 152 0 255
0.025000 -0.000000 0.007000 -0.051479 0.998674 0.000000 201 152 0 255
0.025000 0.000000 0.000000 -0.051479 0.998674 0.000000 201 152 12 255
0.025000 0.000000 0.000000 0.051479 0.998674 0.000000 201 152 12 255
0.025000 -0.000000 0.007000 0.051479 0.998674 0.000000 201 152 0 255
0.027571 -0.000133 0.007000 0.051479 0.998674 0.000000 201 152 0 255
0.027571 -0.000133 -0.000000 0.051479 0.998674 0.000000 201 152 0 255
0.027571 -0.000133 -0.000000 0.153891 0.988088 0.000000 201 152 0 255
0.027571 -0.000133 0.007000 0.153891 0.988088 0.000000 201 152 0 255
0.030114 -0.000529 0.007000 0.153891 0.988088 0.000000 201 152 0 255
0.030114 -0.000529 -0.000000 0.153891 0.988088 0.000000 201 152 0 255
0.030114 -0.000529 -0.000000 0.254671 0.967028 0.000000 201 152 0 255
0.030114 -0.000529 0.007000 0.254671 0.967028 0.000000 201 152 0 255
0.032603 -0.001184 0.007000 0.254671 0.967028 0.000000 201 152 0 255
0.032603 -0.001184 -0.000000 0.254671 0.967028 0.000000 201 152 0 255
0.032603 -0.001184 -0.000000 0.352753 0.935717 0.000000 201 152 0 255
0.032603 -0.001184 0.007000 0.352753 0.935717 0.000000 201 152 0 255
0.035011 -0.002092 0.007000 0.352753 0.935717 0.000000 201 152 1 255
0.035011 -0.002092 -0.000000 0.352753 0.935717 0.000000 201 152 0 255
0.035011 -0.002092 -0.000000 0.447093 0.894487 0.000000 201 152 0 255
0.035011 -0.002092 0.007000 0.447093 0.894487 0.000000 201 152 1 255
0.037314 -0.003243 0.007000 0.447093 0.894487 0.000000 201 152 0 255
0.037314 -0.003243 -0.000000 0.447093 0.894487 0.000000 201 152 0 255
0.037314 -0.003243 -0.000000 0.536696 0.843775 0.000000 201 152 0 255
0.037314 -0.003243 0.007000 0.536696 0.843775 0.000000 201 152 0 255
0.039486 -0.004624 0.007000 0.536696 0.843775 0.000000 201 152 1 255
0.039486 -0.004624 -0.000000 0.536696 0.843775 0.000000 201 152 0 255
0.039486 -0.004624 -0.000000 0.620610 0.784119 0.000000 201 152 0 255
0.039486 -0.004624 0.007000 0.620610 0.784119 0.000000 201 152 1 255
0.041504 -0.006222 0.007000 0.620610 0.784119 0.000000 201 152 1 255
0.041504 -0.006222 -0.000000 0.620610 0.784119 0.000000 201 152 2 255
0.041504 -0.006222 -0.000000 0.697944 0.716153 0.000000 201 152 2 255
0.041504 -0.006222 0.007000 0.697944 0.716153 0.000000 201 152 1 255
0.043347 -0.008018 0.007000 0.697944 0.716153 0.000000 201 152 3 255
0.041504 -0.006222 -0.000000 0.697944 0.716152 -0.000000 201 152 2 255
0.043347 -0.008018 0.007000 0.697944 0.716152 -0.000000 201 152 3 255
0.043347 -0.008018 -0.000000 0.697944 0.716152 -0.000000 201 152 8 255
0.043347 -0.008018 -0.000000 0.767880 0.640593 0.000000 201 152 8 255
0.043347 -0.008018 0.007000 0.767880 0.640593 0.000000 201 152 3 255
0.044996 -0.009995 0.007000 0.767880 0.640593 0.000000 201 152 2 255
0.044996 -0.009995 -0.000000 0.767880 0.640593 -0.000000 202 153 14 255
0.044996 -0.009995 -0.000000 0.829677 0.558244 0.000000 202 153 14 255
0.044996 -0.009995 0.007000 0.829677 0.558244 0.000000 201 152 2 255
0.046433 -0.012130 0.007000 0.829677 0.558244 0.000000 201 152 0 255
0.046433 -0.012130 -0.000000 0.829677 0.558244 -0.000000 202 154 18 255
0.046433 -0.012130 -0.000000 0.882679 0.469977 0.000000 202 154 18 255
0.046433 -0.012130 0.007000 0.882679 0.469977 0.000000 201 152 0 255
0.047643 -0.014402 0.007000 0.882679 0.469977 0.000000 201 152 1 255
0.047643 -0.014402 -0.000000 0.882679 0.469977 -0.000000 201 152 11 255
0.047643 -0.014402 -0.000000 0.926324 0.376727 0.000000 201 152 11 255
0.047643 -0.014402 0.007000 0.926324 0.376727 0.000000 201 152 1 255
0.048612 -0.016786 0.007000 0.926324 0.376727 0.000000 201 152 6 255
0.048612 -0.016786 -0.000000 0.926324 0.376727 -0.000000 202 153 18 255
0.048612 -0.016786 -0.000000 0.960150 0.279486 0.000000 202 153 18 255
0.048612 -0.016786 0.007000 0.960150 0.279486 0.000000 201 152 6 255
0.049332 -0.019258 0.007000 0.960150 0.279486 0.000000 201 152 9 255
0.049332 -0.019258 -0.000000 0.960150 0.279486 -0.000000 206 160 56 255
0.049332 -0.019258 -0.000000 0.983798 0.179280 0.000000 206 160 56 255
0.049332 -0.019258 0.007000 0.983798 0.179280 0.000000 201 152 9 255
0.049793 -0.021790 0.007000 0.983798 0.179280 0.000000 201 152 6 255
0.049793 -0.021790 -0.000000 0.983798 0.179280 -0.000000 204 158 50 255
0.049793 -0.021790 -0.000000 0.997017 0.077176 0.000000 204 158 50 255
0.049793 -0.021790 0.007000 0.997017 0.077176 0.000000 201 152 6 255
0.049992 -0.024356 0.007000 0.997017 0.077176 0.000000 201 152 4 255
0.049992 -0.024356 -0.000000 0.997017 0.077176 -0.000000 202 153 15 255
0.049992 -0.024356 -0.000000 0.999668 -0.025748 0.000000 202 153 15 255
0.049992 -0.024356 0.007000 0.999668 -0.025748 0.000000 201 152 4 255
0.049925 -0.026929 0.007000 0.999668 -0.025748 0.000000 201 152 3 255
0.049925 -0.026929 -0.000000 0.999668 -0.025748 0.000000 202 153 2 255
0.049925 -0.026929 -0.000000 0.991723 -0.128398 0.000000 202 153 2 255
0.049925 -0.026929 0.007000 0.991723 -0.128398 0.000000 201 152 3 255
0.049595 -0.029482 0.007000 0.991723 -0.128398 0.000000 201 152 3 255
0.049595 -0.029482 -0.000000 0.991723 -0.128398 0.000000 201 152 0 255
0.049595 -0.029482 -0.000000 0.973264 -0.229688 0.000000 201 152 0 255
0.049595 -0.029482 0.007000 0.973264 -0.229688 0.000000 201 152 3 255
0.049004 -0.031987 0.007000 0.973264 -0.229688 0.000000 201 152 2 255
0.049004 -0.031987 -0.000000 0.973264 -0.229688 0.000000 201 152 0 255
0.049004 -0.031987 -0.000000 0.944489 -0.328542 0.000000 201 152 0 255
0.049004 -0.031987 0.007000 0.944489 -0.328542 0.000000 201 152 2 255
0.048158 -0.034418 0.007000 0.944489 -0.328542 0.000000 201 152 1 255
0.048158 -0.034418 -0.000000 0.944489 -0.328542 0.000000 201 152 0 255
0.048158 -0.034418 -0.000000 0.905702 -0.423914 0.000000 201 152 0 255
0.048158 -0.034418 0.007000 0.905702 -0.423914 0.000000 201 152 1 255
0.047067 -0.036749 0.007000 0.905702 -0.423914 0.000000 201 152 0 255
0.047067 -0.036749 -0.000000 0.905702 -0.423914 0.000000 201 152 0 255
0.047067 -0.036749 -0.000000 0.857314 -0.514794 0.000000 201 152 0 255
0.047067 -0.036749 0.007000 0.857314 -0.514794 0.000000 201 152 0 255
0.045742 -0.038956 0.007000 0.857314 -0.514794 0.000000 201 152 0 255
0.045742 -0.038956 -0.000000 0.857314 -0.514794 0.000000 201 152 0 255
0.045742 -0.038956 -0.000000 0.799839 -0.600214 0.000000 201 152 0 255
0.045742 -0.038956 0.007000 0.799839 -0.600214 0.000000 201 152 0 255
0.044197 -0.041015 0.007000 0.799839 -0.600214 0.000000 201 152 0 255
0.044197 -0.041015 -0.000000 0.799839 -0.600214 0.000000 201 152 0 255
0.044197 -0.041015 -0.000000 0.733885 -0.679274 0.000000 201 152 0 255
0.044197 -0.041015 0.007000 0.733885 -0.679274 0.000000 201 152 0 255
0.042449 -0.042904 0.007000 0.733885 -0.679274 0.000000 201 152 0 255
0.042449 -0.042904 -0.000000 0.733885 -0.679274 0.000000 201 152 0 255
0.042449 -0.042904 -0.000000 0.660153 -0.751131 0.000000 201 152 0 255
0.042449 -0.042904 0.007000 0.660153 -0.751131 0.000000 201 152 0 255
0.040515 -0.044603 0.007000 0.660153 -0.751131 0.000000 201 152 0 255
0.040515 -0.044603 -0.000000 0.660153 -0.751131 0.000000 201 152 0 255
0.040515 -0.044603 -0.000000 0.579421 -0.815029 0.000000 201 152 0 255
0.040515 -0.044603 0.007000 0.579421 -0.815029 0.000000 201 152 0 255
0.038417 -0.046094 0.007000 0.579421 -0.815029 0.000000 201 152 2 255
0.038417 -0.046094 -0.000000 0.579421 -0.815029 0.000000 201 152 0 255
0.038417 -0.046094 -0.000000 0.492549 -0.870285 0.000000 201 152 0 255
0.038417 -0.046094 0.007000 0.492549 -0.870285 0.000000 201 152 2 255
0.036177 -0.047362 0.007000 0.492549 -0.870285 0.000000 201 152 3 255
0.036177 -0.047362 -0.000000 0.492549 -0.870285 0.000000 201 152 1 255
0.036177 -0.047362 -0.000000 0.400454 -0.916317 0.000000 201 152 1 255
0.036177 -0.047362 0.007000 0.400454 -0.916317 0.000000 201 152 3 255
0.033819 -0.048393 0.007000 0.400454 -0.916317 0.000000 201 152 5 255
0.033819 -0.048393 -0.000000 0.400454 -0.916317 0.000000 201 152 0 255
0.033819 -0.048393 -0.000000 0.304115 -0.952635 0.000000 201 152 0 255
0.033819 -0.048393 0.007000 0.304115 -0.952635 0.000000 201 152 5 255
0.031367 -0.049176 0.007000 0.304115 -0.952635 0.000000 201 152 8 255
0.031367 -0.049176 -0.000000 0.304115 -0.952635 0.000000 201 152 0 255
0.031367 -0.049176 -0.000000 0.204551 -0.978856 0.000000 201 152 0 255
0.031367 -0.049176 0.007000 0.204551 -0.978856 0.000000 201 152 8 255
0.028847 -0.049702 0.007000 0.204551 -0.978856 0.000000 201 152 8 255
0.028847 -0.049702 -0.000000 0.204551 -0.978856 0.000000 201 152 0 255
0.028847 -0.049702 -0.000000 0.102821 -0.994700 0.000000 201 152 0 255
0.028847 -0.049702 0.007000 0.102821 -0.994700 0.000000 201 152 8 255
0.026287 -0.049967 0.007000 0.102821 -0.994700 0.000000 201 152 14 255
0.026287 -0.049967 -0.000000 0.102821 -0.994700 0.000000 201 152 0 255
0.026287 -0.049967 -0.000000 0.025748 -0.999668 0.000000 201 152 0 255
0.025000 -0.050000 0.007000 0.000000 -0.000000 1.000000 201 153 18 255
0.026287 -0.049967 0.007000 0.000000 -0.000000 1.000000 201 152 14 255
0.025000 -0.025000 0.007000 0.000000 -0.000000 1.000000 201 152 12 255
0.023713 -0.049967 0.007000 -0.000000 -0.000000 1.000000 202 153 21 255
0.016181 -0.048393 0.007000 -0.000000 -0.000000 1.000000 201 152 7 255
0.018633 -0.049176 0.007000 -0.000000 -0.000000 1.000000 201 152 1 255
0.021153 -0.049702 0.007000 -0.000000 -0.000000 1.000000 202 153 8 255
0.009485 -0.044603 0.007000 -0.000000 -0.000000 1.000000 201 152 0 255
0.011583 -0.046094 0.007000 -0.000000 -0.000000 1.000000 201 152 0 255
0.013823 -0.047362 0.007000 -0.000000 -0.000000 1.000000 201 152 2 255
0.004258 -0.038956 0.007000 -0.000000 -0.000000 1.000000 201 152 0 255
0.005803 -0.041015 0.007000 -0.000000 -0.000000 1.000000 201 152 0 255
0.007551 -0.042904 0.007000 -0.000000 -0.000000 1.000000 201 152 0 255
0.000996 -0.031987 0.007000 -0.000000 -0.000000 1.000000 201 152 0 255
0.001842 -0.034418 0.007000 -0.000000 -0.000000 1.000000 201 152 0 255
0.002933 -0.036749 0.007000 -0.000000 -0.000000 1.000000 201 152 0 255
0.000008 -0.024356 0.007000 -0.000000 -0.000000 1.000000 201 152 0 255
0.000075 -0.026929 0.007000 -0.000000 -0.000000 1.000000 201 152 0 255
0.000405 -0.029482 0.007000 -0.000000 -0.000000 1.000000 201 152 0 255
0.001388 -0.016786 0.007000 0.000000 -0.000000 1.000000 201 152 0 255
0.000668 -0.019258 0.007000 0.000000 -0.000000 1.000000 201 152 0 255
0.000207 -0.021790 0.007000 -0.000000 0.000000 1.000000 201 152 0 255
0.005004 -0.009995 0.007000 0.000000 -0.000000 1.000000 201 152 0 255
0.003567 -0.012130 0.007000 0.000000 -0.000000 1.000000 201 152 0 255
0.002357 -0.014402 0.007000 0.000000 -0.000000 1.000000 201 152 0 255
0.010514 -0.004624 0.007000 -0.000000 -0.000000 1.000000 201 152 0 255
0.008496 -0.006222 0.007000 -0.000000 -0.000000 1.000000 201 153 4 255
0.006653 -0.008018 0.007000 0.000000 -0.000000 1.000000 202 153 11 255
0.017397 -0.001184 0.007000 0.000000 -0.000000 1.000000 201 152 0 255
0.014989 -0.002092 0.007000 0.000000 -0.000000 1.000000 201 152 0 255
0.012686 -0.003243 0.007000 0.000000 -0.000000 1.000000 201 152 0 255
0.025000 -0.000000 0.007000 0.000000 -0.000000 1.000000 201 152 0 255
0.022429 -0.000133 0.007000 0.000000 -0.000000 1.000000 201 152 0 255
0.019886 -0.000529 0.007000 0.000000 -0.000000 1.000000 201 152 0 255
0.032603 -0.001184 0.007000 -0.000000 -0.000000 1.000000 201 152 0 255
0.030114 -0.000529 0.007000 -0.000000 -0.000000 1.000000 201 152 0 255
0.027571 -0.000133 0.007000 -0.000000 -0.000000 1.000000 201 152 0 255
0.039486 -0.004624 0.007000 -0.000000 -0.000000 1.000000 201 152 1 255
0.037314 -0.003243 0.007000 -0.000000 -0.000000 1.000000 201 152 0 255
0.035011 -0.002092 0.007000 -0.000000 -0.000000 1.000000 201 152 1 255
0.044996 -0.009995 0.007000 -0.000000 -0.000000 1.000000 201 152 2 255
0.043347 -0.008018 0.007000 -0.000000 -0.000000 1.000000 201 152 3 255
0.041504 -0.006222 0.007000 -0.000000 -0.000000 1.000000 201 152 1 255
0.048612 -0.016786 0.007000 0.000000 -0.000000 1.000000 201 152 6 255
0.047643 -0.014402 0.007000 0.000000 -0.000000 1.000000 201 152 1 255
0.046433 -0.012130 0.007000 -0.000000 -0.000000 1.000000 201 152 0 255
0.049992 -0.024356 0.007000 -0.000000 0.000000 1.000000 201 152 4 255
0.049793 -0.021790 0.007000 -0.000000 0.000000 1.000000 201 152 6 255
0.049332 -0.019258 0.007000 0.000000 0.000000 1.000000 201 152 9 255
0.049004 -0.031987 0.007000 0.000000 -0.000000 1.000000 201 152 2 255
0.049595 -0.029482 0.007000 0.000000 -0.000000 1.000000 201 152 3 255
0.049925 -0.026929 0.007000 0.000000 -0.000000 1.000000 201 152 3 255
0.045742 -0.038956 0.007000 -0.000000 -0.000000 1.000000 201 152 0 255
0.047067 -0.036749 0.007000 -0.000000 -0.000000 1.000000 201 152 0 255
0.048158 -0.034418 0.007000 0.000000 -0.000000 1.000000 201 152 1 255
0.040515 -0.044603 0.007000 0.000000 -0.000000 1.000000 201 152 0 255
0.042449 -0.042904 0.007000 0.000000 -0.000000 1.000000 201 152 0 255
0.044197 -0.041015 0.007000 0.000000 -0.000000 1.000000 201 152 0 255
0.033819 -0.048393 0.007000 -0.000000 -0.000000 1.000000 201 152 5 255
0.036177 -0.047362 0.007000 -0.000000 -0.000000 1.000000 201 152 3 255
0.038417 -0.046094 0.007000 0.000000 -0.000000 1.000000 201 152 2 255
0.028847 -0.049702 0.007000 0.000000 -0.000000 1.000000 201 152 8 255
0.031367 -0.049176 0.007000 0.000000 -0.000000 1.000000 201 152 8 255
0.025000 -0.050000 -0.000000 -0.000000 0.000000 -1.000000 201 152 0 255
0.023713 -0.049967 -0.000000 -0.000000 0.000000 -1.000000 201 152 0 255
0.025000 -0.025000 -0.000000 -0.000000 0.000000 -1.000000 201 152 0 255
0.026287 -0.049967 -0.000000 0.000000 0.000000 -1.000000 201 152 0 255
0.033819 -0.048393 -0.000000 0.000000 0.000000 -1.000000 201 152 0 255
0.031367 -0.049176 -0.000000 0.000000 0.000000 -1.000000 201 152 0 255
0.028847 -0.049702 -0.000000 0.000000 0.000000 -1.000000 201 152 0 255
0.040515 -0.044603 -0.000000 0.000000 0.000000 -1.000000 201 152 0 255
0.038417 -0.046094 -0.000000 0.000000 0.000000 -1.000000 201 152 0 255
0.036177 -0.047362 -0.000000 0.000000 0.000000 -1.000000 201 152 1 255
0.045742 -0.038956 -0.000000 -0.000000 0.000000 -1.000000 201 152 0 255
0.044197 -0.041015 -0.000000 -0.000000 0.000000 -1.000000 201 152 0 255
0.042449 -0.042904 -0.000000 -0.000000 0.000000 -1.000000 201 152 0 255
0.049004 -0.031987 -0.000000 0.000000 0.000000 -1.000000 201 152 0 255
0.048158 -0.034418 -0.000000 0.000000 0.000000 -1.000000 201 152 0 255
0.047067 -0.036749 -0.000000 0.000000 0.000000 -1.000000 201 152 0 255
0.049992 -0.024356 -0.000000 -0.000000 0.000000 -1.000000 202 153 15 255
0.049925 -0.026929 -0.000000 -0.000000 0.000000 -1.000000 202 153 2 255
0.049595 -0.029482 -0.000000 0.000000 0.000000 -1.000000 201 152 0 255
0.048612 -0.016786 -0.000000 0.000000 0.000000 -1.000000 202 153 18 255
0.049332 -0.019258 -0.000000 0.000000 0.000000 -1.000000 206 160 56 255
0.049793 -0.021790 -0.000000 0.000000 0.000000 -1.000000 204 158 50 255
0.044996 -0.009995 -0.000000 0.000000 0.000000 -1.000000 202 153 14 255
0.046433 -0.012130 -0.000000 0.000000 0.000000 -1.000000 202 154 18 255
0.047643 -0.014402 -0.000000 -0.000000 0.000000 -1.000000 201 152 11 255
0.039486 -0.004624 -0.000000 0.000000 0.000000 -1.000000 201 152 0 255
0.041504 -0.006222 -0.000000 0.000000 0.000000 -1.000000 201 152 2 255
0.043347 -0.008018 -0.000000 -0.000000 0.000000 -1.000000 201 152 8 255
0.032603 -0.001184 -0.000000 0.000000 0.000000 -1.000000 201 152 0 255
0.035011 -0.002092 -0.000000 0.000000 0.000000 -1.000000 201 152 0 255
0.037314 -0.003243 -0.000000 0.000000 0.000000 -1.000000 201 152 0 255
0.025000 0.000000 0.000000 0.000000 0.000000 -1.000000 201 152 12 255
0.027571 -0.000133 -0.000000 0.000000 0.000000 -1.000000 201 152 0 255
0.030114 -0.000529 -0.000000 0.000000 0.000000 -1.000000 201 152 0 255
0.017397 -0.001184 -0.000000 0.000000 0.000000 -1.000000 201 152 0 255
0.019886 -0.000529 -0.000000 0.000000 0.000000 -1.000000 201 152 2 255
0.022429 -0.000133 -0.000000 -0.000000 0.000000 -1.000000 202 153 13 255
0.010514 -0.004624 -0.000000 0.000000 0.000000 -1.000000 202 153 22 255
0.012686 -0.003243 -0.000000 0.000000 0.000000 -1.000000 203 157 45 255
0.014989 -0.002092 -0.000000 0.000000 0.000000 -1.000000 201 152 2 255
0.005004 -0.009995 -0.000000 -0.000000 0.000000 -1.000000 201 152 0 255
0.006653 -0.008018 -0.000000 -0.000000 0.000000 -1.000000 201 152 0 255
0.008496 -0.006222 -0.000000 0.000000 0.000000 -1.000000 201 152 0 255
0.001388 -0.016786 -0.000000 0.000000 0.000000 -1.000000 201 152 0 255
0.002357 -0.014402 -0.000000 0.000000 0.000000 -1.000000 201 152 0 255
0.003567 -0.012130 -0.000000 0.000000 0.000000 -1.000000 201 152 0 255
0.000008 -0.024356 -0.000000 0.000000 0.000000 -1.000000 201 152 0 255
0.000207 -0.021790 -0.000000 0.000000 0.000000 -1.000000 201 152 0 255
0.000668 -0.019258 -0.000000 -0.000000 0.000000 -1.000000 201 152 0 255
0.000996 -0.031987 -0.000000 -0.000000 0.000000 -1.000000 201 152 0 255
0.000405 -0.029482 -0.000000 -0.000000 0.000000 -1.000000 201 152 0 255
0.000075 -0.026929 -0.000000 -0.000000 0.000000 -1.000000 201 152 0 255
0.004258 -0.038956 -0.000000 0.000000 0.000000 -1.000000 201 152 0 255
0.002933 -0.036749 -0.000000 0.000000 0.000000 -1.000000 201 152 0 255
0.001842 -0.034418 -0.000000 -0.000000 0.000000 -1.000000 201 152 0 255
0.009485 -0.044603 -0.000000 -0.000000 0.000000 -1.000000 203 154 31 255
0.007551 -0.042904 -0.000000 -0.000000 0.000000 -1.000000 202 153 10 255
0.005803 -0.041015 -0.000000 0.000000 0.000000 -1.000000 201 152 0 255
0.016181 -0.048393 -0.000000 0.000000 0.000000 -1.000000 201 152 0 255
0.013823 -0.047362 -0.000000 0.000000 0.000000 -1.000000 201 152 0 255
0.011583 -0.046094 -0.000000 -0.000000 0.000000 -1.000000 201 152 7 255
0.021153 -0.049702 -0.000000 0.000000 0.000000 -1.000000 201 152 0 255
0.018633 -0.049176 -0.000000 -0.000000 0.000000 -1.000000 201 152 0 255
3 0 1 2
3 3 4 5
3 4 6 5
3 7 8 9
3 7 9 10
3 11 12 13
3 11 13 14
3 15 16 17
3 15 17 18
3 19 20 21
3 19 21 22
3 23 24 25
3 23 25 26
3 27 28 29
3 27 29 30
3 31 32 33
3 31 33 34
3 35 36 37
3 35 37 38
3 39 40 41
3 39 41 42
3 43 44 45
3 43 45 46
3 47 48 49
3 47 49 50
3 51 52 53
3 51 53 54
3 55 56 57
3 55 57 58
3 59 60 61
3 59 61 62
3 63 64 65
3 63 65 66
3 67 68 69
3 67 69 70
3 71 72 73
3 71 73 74
3 75 76 77
3 75 77 78
3 79 80 81
3 79 81 82
3 83 84 85
3 83 85 86
3 87 88 89
3 87 89 90
3 91 92 93
3 91 93 94
3 95 96 97
3 95 97 98
3 99 100 101
3 99 101 102
3 103 104 105
3 103 105 106
3 107 108 109
3 107 109 110
3 111 112 113
3 111 113 114
3 115 116 117
3 115 117 118
3 119 120 121
3 119 121 122
3 123 124 125
3 123 125 126
3 127 128 129
3 127 129 130
3 131 132 133
3 131 133 134
3 135 136 137
3 135 137 138
3 139 140 141
3 139 141 142
3 143 144 145
3 143 145 146
3 147 148 149
3 147 149 150
3 151 152 153
3 151 153 154
3 155 156 157
3 158 159 160
3 161 162 163
3 161 163 164
3 165 166 167
3 165 167 168
3 169 170 171
3 169 171 172
3 173 174 175
3 173 175 176
3 177 178 179
3 177 179 180
3 181 182 183
3 181 183 184
3 185 186 187
3 185 187 188
3 189 190 191
3 189 191 192
3 193 194 195
3 193 195 196
3 197 198 199
3 197 199 200
3 201 202 203
3 201 203 204
3 205 206 207
3 205 207 208
3 209 210 211
3 209 211 212
3 213 214 215
3 213 215 216
3 217 218 219
3 217 219 220
3 221 222 223
3 221 223 224
3 225 226 227
3 225 227 228
3 229 230 231
3 229 231 232
3 233 234 235
3 233 235 236
3 237 238 239
3 237 239 240
3 241 242 243
3 241 243 244
3 245 246 247
3 245 247 248
3 249 0 2
3 250 251 252
3 250 252 253
3 254 255 252
3 252 255 256
3 252 256 253
3 257 258 252
3 252 258 259
3 252 259 254
3 260 261 252
3 252 261 262
3 252 262 257
3 263 264 252
3 252 264 265
3 252 265 260
3 266 267 252
3 252 267 268
3 252 268 263
3 269 270 252
3 252 270 271
3 252 271 266
3 272 273 252
3 252 273 274
3 252 274 269
3 275 276 252
3 252 276 277
3 252 277 272
3 278 279 252
3 252 279 280
3 252 280 275
3 281 282 252
3 252 282 283
3 252 283 278
3 284 285 252
3 252 285 286
3 252 286 281
3 287 288 252
3 252 288 289
3 252 289 284
3 290 291 252
3 252 291 292
3 252 292 287
3 293 294 252
3 252 294 295
3 252 295 290
3 296 297 252
3 252 297 298
3 252 298 293
3 299 300 252
3 252 300 301
3 252 301 296
3 302 303 252
3 252 303 304
3 252 304 299
3 305 306 252
3 252 306 307
3 252 307 302
3 308 309 252
3 252 309 310
3 252 310 305
3 251 311 252
3 252 311 312
3 252 312 308
3 313 314 315
3 313 315 316
3 317 318 315
3 315 318 319
3 315 319 316
3 320 321 315
3 315 321 322
3 315 322 317
3 323 324 315
3 315 324 325
3 315 325 320
3 326 327 315
3 315 327 328
3 315 328 323
3 329 330 315
3 315 330 331
3 315 331 326
3 332 333 315
3 315 333 334
3 315 334 329
3 335 336 315
3 315 336 337
3 315 337 332
3 338 339 315
3 315 339 340
3 315 340 335
3 341 342 315
3 315 342 343
3 315 343 338
3 344 345 315
3 315 345 346
3 315 346 341
3 347 348 315
3 315 348 349
3 315 349 344
3 350 351 315
3 315 351 352
3 315 352 347
3 353 354 315
3 315 354 355
3 315 355 350
3 356 357 315
3 315 357 358
3 315 358 353
3 359 360 315
3 315 360 361
3 315 361 356
3 362 363 315
3 315 363 364
3 315 364 359
3 365 366 315
3 315 366 367
3 315 367 362
3 368 369 315
3 315 369 370
3 315 370 365
3 371 372 315
3 315 372 373
3 315 373 368
3 314 374 315
3 315 374 375
3 315 375 371
