ply
format ascii 1.0
comment Created by Blender 2.80 (sub 75) - www.blender.org, source file: ''
element vertex 104
property float x
property float y
property float z
property float nx
property float ny
property float nz
property uchar red
property uchar green
property uchar blue
property uchar alpha
element face 64
property list uchar uint vertex_indices
end_header
0.020000 -0.600000 0.500000 1.000000 0.000000 -0.000000 53 70 97 255
0.020000 -0.600000 0.020000 1.000000 0.000000 -0.000000 97 106 124 255
0.020000 -0.000000 0.500000 1.000000 0.000000 -0.000000 53 70 97 255
0.020000 -0.000000 0.020000 1.000000 0.000000 -0.000000 54 70 97 255
0.020000 -0.600000 0.020000 0.000000 -0.000000 1.000000 97 106 124 255
0.600000 -0.600000 0.020000 0.000000 -0.000000 1.000000 53 70 97 255
0.020000 -0.000000 0.020000 0.000000 -0.000000 1.000000 54 70 97 255
0.600000 -0.000000 0.020000 0.000000 -0.000000 1.000000 56 69 96 255
0.600000 -0.000000 0.020000 1.000000 0.000000 -0.000000 56 69 96 255
0.600000 -0.600000 0.020000 1.000000 0.000000 -0.000000 53 70 97 255
0.600000 0.000000 0.000000 1.000000 0.000000 -0.000000 59 70 95 255
0.600000 -0.600000 -0.000000 1.000000 -0.000000 0.000000 53 70 97 255
0.020000 -0.000000 0.500000 0.000000 1.000000 0.000000 53 70 97 255
0.021433 -0.000000 0.505963 0.000000 1.000000 0.000000 53 70 97 255
0.030000 -0.000000 0.511962 0.000000 1.000000 0.000000 53 70 97 255
0.600000 -0.000000 0.520000 0.000000 1.000000 0.000000 53 70 97 255
0.600000 -0.000000 0.500000 0.000000 1.000000 0.000000 53 70 97 255
0.060000 -0.000000 0.520000 0.000000 1.000000 0.000000 58 74 100 255
0.039479 -0.000000 0.516382 -0.000000 1.000000 0.000000 54 71 97 255
0.049581 -0.000000 0.519088 0.000000 1.000000 0.000000 55 71 98 255
0.000912 -0.000000 0.470419 -0.000000 1.000000 0.000000 53 70 97 255
0.003618 -0.000000 0.480521 -0.000000 1.000000 0.000000 53 70 97 255
0.600000 -0.000000 0.020000 0.000000 1.000000 0.000000 56 69 96 255
0.600000 0.000000 0.000000 0.000000 1.000000 0.000000 59 70 95 255
0.020000 -0.000000 0.020000 0.000000 1.000000 0.000000 54 70 97 255
0.000000 0.000000 0.000000 -0.000000 1.000000 0.000000 68 81 105 255
0.000000 -0.000000 0.460000 0.000000 1.000000 0.000000 53 70 97 255
0.008038 -0.000000 0.490000 0.000000 1.000000 0.000000 53 70 97 255
0.014037 -0.000000 0.498567 -0.000000 1.000000 0.000000 53 70 97 255
0.000000 -0.000000 0.460000 -1.000000 0.000000 0.000000 53 70 97 255
0.000000 0.000000 0.000000 -1.000000 0.000000 0.000000 68 81 105 255
0.000000 -0.600000 0.460000 -1.000000 0.000000 0.000000 55 71 98 255
0.000000 -0.600000 -0.000000 -1.000000 0.000000 0.000000 151 157 166 255
0.600000 -0.600000 0.500000 0.000000 -1.000000 0.000000 53 70 97 255
0.600000 -0.600000 0.520000 0.000000 -1.000000 0.000000 53 70 97 255
0.020000 -0.600000 0.500000 0.000000 -1.000000 0.000000 53 70 97 255
0.060000 -0.600000 0.520000 0.000000 -1.000000 -0.000000 53 70 97 255
0.049581 -0.600000 0.519088 0.000000 -1.000000 -0.000000 53 70 97 255
0.021433 -0.600000 0.505963 -0.000000 -1.000000 0.000000 53 70 97 255
0.014037 -0.600000 0.498567 -0.000000 -1.000000 0.000000 54 71 98 255
0.008038 -0.600000 0.490000 0.000000 -1.000000 0.000000 54 71 98 255
0.003618 -0.600000 0.480521 0.000000 -1.000000 0.000000 54 71 98 255
0.600000 -0.600000 -0.000000 0.000000 -1.000000 0.000000 53 70 97 255
0.600000 -0.600000 0.020000 0.000000 -1.000000 0.000000 53 70 97 255
0.000000 -0.600000 -0.000000 0.000000 -1.000000 0.000000 151 157 166 255
0.020000 -0.600000 0.020000 0.000000 -1.000000 -0.000000 97 106 124 255
0.000000 -0.600000 0.460000 0.000000 -1.000000 -0.000000 55 71 98 255
0.000912 -0.600000 0.470419 0.000000 -1.000000 -0.000000 54 71 98 255
0.039479 -0.600000 0.516382 0.000000 -1.000000 0.000000 53 70 97 255
0.030000 -0.600000 0.511962 0.000000 -1.000000 -0.000000 53 70 97 255
0.000000 -0.600000 -0.000000 0.000000 0.000000 -1.000000 151 157 166 255
0.000000 0.000000 0.000000 0.000000 0.000000 -1.000000 68 81 105 255
0.600000 -0.600000 -0.000000 0.000000 0.000000 -1.000000 53 70 97 255
0.600000 0.000000 0.000000 0.000000 0.000000 -1.000000 59 70 95 255
0.060000 -0.600000 0.520000 0.000000 0.000000 1.000000 53 70 97 255
0.600000 -0.600000 0.520000 0.000000 0.000000 1.000000 53 70 97 255
0.060000 -0.000000 0.520000 0.000000 0.000000 1.000000 58 74 100 255
0.600000 -0.000000 0.520000 0.000000 0.000000 1.000000 53 70 97 255
0.600000 -0.000000 0.500000 0.000000 0.000000 -1.000000 53 70 97 255
0.600000 -0.600000 0.500000 0.000000 0.000000 -1.000000 53 70 97 255
0.020000 -0.000000 0.500000 0.000000 0.000000 -1.000000 53 70 97 255
0.020000 -0.600000 0.500000 0.000000 0.000000 -1.000000 53 70 97 255
0.600000 -0.000000 0.500000 1.000000 -0.000000 0.000000 53 70 97 255
0.600000 -0.000000 0.520000 1.000000 -0.000000 0.000000 53 70 97 255
0.600000 -0.600000 0.500000 1.000000 -0.000000 0.000000 53 70 97 255
0.600000 -0.600000 0.520000 1.000000 -0.000000 0.000000 53 70 97 255
0.060000 -0.600000 0.520000 -0.087156 0.000000 0.996195 53 70 97 255
0.060000 -0.000000 0.520000 -0.087156 0.000000 0.996195 58 74 100 255
0.049581 -0.000000 0.519088 -0.087156 0.000000 0.996195 55 71 98 255
0.049581 -0.600000 0.519088 -0.087156 0.000000 0.996195 53 70 97 255
0.049581 -0.600000 0.519088 -0.258817 0.000000 0.965926 53 70 97 255
0.049581 -0.000000 0.519088 -0.258817 0.000000 0.965926 55 71 98 255
0.039479 -0.000000 0.516382 -0.258817 0.000000 0.965926 54 71 97 255
0.039479 -0.600000 0.516382 -0.258817 0.000000 0.965926 53 70 97 255
0.039479 -0.600000 0.516382 -0.422618 0.000000 0.906308 53 70 97 255
0.039479 -0.000000 0.516382 -0.422618 0.000000 0.906308 54 71 97 255
0.030000 -0.000000 0.511962 -0.422618 0.000000 0.906308 53 70 97 255
0.030000 -0.600000 0.511962 -0.422618 0.000000 0.906308 53 70 97 255
0.030000 -0.600000 0.511962 -0.573577 0.000000 0.819152 53 70 97 255
0.030000 -0.000000 0.511962 -0.573577 0.000000 0.819152 53 70 97 255
0.021433 -0.000000 0.505963 -0.573577 0.000000 0.819152 53 70 97 255
0.021433 -0.600000 0.505963 -0.573577 0.000000 0.819152 53 70 97 255
0.021433 -0.600000 0.505963 -0.707107 0.000000 0.707107 53 70 97 255
0.021433 -0.000000 0.505963 -0.707107 0.000000 0.707107 53 70 97 255
0.014037 -0.000000 0.498567 -0.707107 0.000000 0.707107 53 70 97 255
0.021433 -0.600000 0.505963 -0.707108 -0.000000 0.707105 53 70 97 255
0.014037 -0.000000 0.498567 -0.707108 -0.000000 0.707105 53 70 97 255
0.014037 -0.600000 0.498567 -0.707108 -0.000000 0.707105 54 71 98 255
0.014037 -0.600000 0.498567 -0.819152 -0.000000 0.573577 54 71 98 255
0.014037 -0.000000 0.498567 -0.819152 -0.000000 0.573577 53 70 97 255
0.008038 -0.000000 0.490000 -0.819152 -0.000000 0.573577 53 70 97 255
0.008038 -0.600000 0.490000 -0.819152 -0.000000 0.573577 54 71 98 255
0.008038 -0.600000 0.490000 -0.906308 -0.000000 0.422618 54 71 98 255
0.008038 -0.000000 0.490000 -0.906308 -0.000000 0.422618 53 70 97 255
0.003618 -0.000000 0.480521 -0.906308 -0.000000 0.422618 53 70 97 255
0.003618 -0.600000 0.480521 -0.906308 -0.000000 0.422618 54 71 98 255
0.003618 -0.600000 0.480521 -0.965926 -0.000000 0.258820 54 71 98 255
0.003618 -0.000000 0.480521 -0.965926 -0.000000 0.258820 53 70 97 255
0.000912 -0.000000 0.470419 -0.965926 -0.000000 0.258820 53 70 97 255
0.000912 -0.600000 0.470419 -0.965926 -0.000000 0.258820 54 71 98 255
0.000912 -0.600000 0.470419 -0.996195 -0.000000 0.087156 54 71 98 255
0.000912 -0.000000 0.470419 -0.996195 -0.000000 0.087156 53 70 97 255
0.000000 -0.000000 0.460000 -0.996195 -0.000000 0.087156 53 70 97 255
0.000000 -0.600000 0.460000 -0.996195 -0.000000 0.087156 55 71 98 255
3 0 1 2
3 2 1 3
3 4 5 6
3 6 5 7
3 8 9 10
3 10 9 11
3 12 13 14
3 15 16 17
3 17 16 12
3 14 18 12
3 12 18 19
3 12 19 17
3 20 21 12
3 22 23 24
3 24 23 25
3 24 25 12
3 12 25 26
3 12 26 20
3 21 27 12
3 12 27 28
3 12 28 13
3 29 30 31
3 31 30 32
3 33 34 35
3 35 34 36
3 35 36 37
3 38 39 35
3 35 39 40
3 35 40 41
3 42 43 44
3 44 43 45
3 44 45 46
3 46 45 35
3 46 35 47
3 47 35 41
3 37 48 35
3 35 48 49
3 35 49 38
3 50 51 52
3 52 51 53
3 54 55 56
3 56 55 57
3 58 59 60
3 60 59 61
3 62 63 64
3 64 63 65
3 66 67 68
3 66 68 69
3 70 71 72
3 70 72 73
3 74 75 76
3 74 76 77
3 78 79 80
3 78 80 81
3 82 83 84
3 85 86 87
3 88 89 90
3 88 90 91
3 92 93 94
3 92 94 95
3 96 97 98
3 96 98 99
3 100 101 102
3 100 102 103
