ply
format ascii 1.0
comment Created by Blender 2.80 (sub 75) - www.blender.org, source file: ''
element vertex 36
property float x
property float y
property float z
property float nx
property float ny
property float nz
property uchar red
property uchar green
property uchar blue
property uchar alpha
element face 20
property list uchar uint vertex_indices
end_header
0.040100 -0.044938 0.007000 0.052574 -0.998617 0.000000 201 152 1 255
0.014155 -0.046304 0.007000 0.052574 -0.998617 0.000000 201 152 1 255
0.040100 -0.044938 -0.000000 0.052574 -0.998617 0.000000 201 152 0 255
0.014155 -0.046304 -0.000000 0.052574 -0.998617 0.000000 201 152 0 255
0.051890 -0.021786 0.007000 0.891115 -0.453778 0.000000 201 152 0 255
0.040100 -0.044938 0.007000 0.891115 -0.453778 0.000000 201 152 1 255
0.051890 -0.021786 -0.000000 0.891115 -0.453778 0.000000 202 153 27 255
0.040100 -0.044938 -0.000000 0.891115 -0.453778 0.000000 201 152 0 255
0.037734 -0.000000 0.007000 0.838541 0.544839 0.000000 201 152 11 255
0.051890 -0.021786 0.007000 0.838541 0.544839 0.000000 201 152 0 255
0.037734 0.000000 0.000000 0.838541 0.544839 0.000000 206 161 66 255
0.051890 -0.021786 -0.000000 0.838541 0.544839 -0.000000 202 153 27 255
0.011790 -0.001366 0.007000 -0.052574 0.998617 0.000000 201 152 0 255
0.037734 -0.000000 0.007000 -0.052574 0.998617 0.000000 201 152 11 255
0.011790 -0.001366 -0.000000 -0.052574 0.998617 0.000000 201 152 10 255
0.037734 0.000000 0.000000 -0.052574 0.998617 0.000000 206 161 66 255
0.000000 -0.024518 0.007000 -0.891115 0.453778 0.000000 203 158 49 255
0.011790 -0.001366 0.007000 -0.891115 0.453778 0.000000 201 152 0 255
0.000000 -0.024518 -0.000000 -0.891115 0.453778 0.000000 202 154 31 255
0.011790 -0.001366 -0.000000 -0.891115 0.453778 0.000000 201 152 10 255
0.014155 -0.046304 0.007000 -0.838541 -0.544839 0.000000 201 152 1 255
0.000000 -0.024518 0.007000 -0.838541 -0.544839 0.000000 203 158 49 255
0.014155 -0.046304 -0.000000 -0.838541 -0.544839 0.000000 201 152 0 255
0.000000 -0.024518 -0.000000 -0.838541 -0.544839 0.000000 202 154 31 255
0.037734 -0.000000 0.007000 0.000000 -0.000000 1.000000 201 152 11 255
0.011790 -0.001366 0.007000 0.000000 -0.000000 1.000000 201 152 0 255
0.051890 -0.021786 0.007000 0.000000 -0.000000 1.000000 201 152 0 255
0.000000 -0.024518 0.007000 0.000000 -0.000000 1.000000 203 158 49 255
0.040100 -0.044938 0.007000 0.000000 -0.000000 1.000000 201 152 1 255
0.014155 -0.046304 0.007000 0.000000 -0.000000 1.000000 201 152 1 255
0.011790 -0.001366 -0.000000 0.000000 0.000000 -1.000000 201 152 10 255
0.037734 0.000000 0.000000 0.000000 0.000000 -1.000000 206 161 66 255
0.000000 -0.024518 -0.000000 0.000000 0.000000 -1.000000 202 154 31 255
0.051890 -0.021786 -0.000000 0.000000 0.000000 -1.000000 202 153 27 255
0.014155 -0.046304 -0.000000 0.000000 0.000000 -1.000000 201 152 0 255
0.040100 -0.044938 -0.000000 -0.000000 0.000000 -1.000000 201 152 0 255
3 0 1 2
3 2 1 3
3 4 5 6
3 6 5 7
3 8 9 10
3 10 9 11
3 12 13 14
3 14 13 15
3 16 17 18
3 18 17 19
3 20 21 22
3 22 21 23
3 24 25 26
3 26 25 27
3 26 27 28
3 28 27 29
3 30 31 32
3 32 31 33
3 32 33 34
3 34 33 35
