ply
format ascii 1.0
comment Created by Blender 2.80 (sub 75) - www.blender.org, source file: ''
element vertex 18
property float x
property float y
property float z
property float nx
property float ny
property float nz
property uchar red
property uchar green
property uchar blue
property uchar alpha
element face 8
property list uchar uint vertex_indices
end_header
0.030000 -0.000000 0.007000 0.745356 0.666667 0.000000 207 165 78 255
0.060000 -0.033541 0.007000 0.745356 0.666667 0.000000 201 152 12 255
0.030000 0.000000 0.000000 0.745356 0.666667 0.000000 201 152 0 255
0.060000 -0.033541 -0.000000 0.745356 0.666667 -0.000000 202 153 18 255
0.000000 -0.033541 0.007000 -0.745356 0.666667 0.000000 202 155 34 255
0.030000 -0.000000 0.007000 -0.745356 0.666667 0.000000 207 165 78 255
0.000000 -0.033541 -0.000000 -0.745356 0.666667 0.000000 201 152 1 255
0.030000 0.000000 0.000000 -0.745356 0.666667 0.000000 201 152 0 255
0.060000 -0.033541 0.007000 0.000000 -1.000000 0.000000 201 152 12 255
0.000000 -0.033541 0.007000 0.000000 -1.000000 0.000000 202 155 34 255
0.060000 -0.033541 -0.000000 0.000000 -1.000000 0.000000 202 153 18 255
0.000000 -0.033541 -0.000000 0.000000 -1.000000 0.000000 201 152 1 255
0.030000 -0.000000 0.007000 0.000000 -0.000000 1.000000 207 165 78 255
0.000000 -0.033541 0.007000 0.000000 -0.000000 1.000000 202 155 34 255
0.060000 -0.033541 0.007000 0.000000 -0.000000 1.000000 201 152 12 255
0.060000 -0.033541 -0.000000 0.000000 0.000000 -1.000000 202 153 18 255
0.000000 -0.033541 -0.000000 0.000000 0.000000 -1.000000 201 152 1 255
0.030000 0.000000 0.000000 0.000000 0.000000 -1.000000 201 152 0 255
3 0 1 2
3 2 1 3
3 4 5 6
3 6 5 7
3 8 9 10
3 10 9 11
3 12 13 14
3 15 16 17
